# xmcd
#
# Track frame offsets: 
#        150
#        17820
#        34781
#        55789
#        75326
#        91558
#        113192
#        129081
#        147528
#        170577
#        183360
#        201790
#
# Disc length: 3189 seconds
#
# Revision: 0
# Processed by: cddbd v1.5.2PL0 Copyright (c) Steve Scherf et al.
# Submitted via: ExactAudioCopyFreeDBPlugin 1.0
#
DISCID=920c730c
DTITLE=Keeshea Pratt Band - Believe
DYEAR=2018
DGENRE=Blues
TTITLE0=Make It Good
TTITLE1=Have A Good Time Y'all
TTITLE2=In The Mood
TTITLE3=It's Too Late
TTITLE4=Shake Off These Blues
TTITLE5=Home To Mississippi
TTITLE6=Easily Replaced
TTITLE7=Monkey See, Monkey Do
TTITLE8=Believe
TTITLE9=Out Of My Mind
TTITLE10=Can't Stop Now
TTITLE11=So Bad Blues (Live)
EXTD=
EXTT0=
EXTT1=
EXTT2=
EXTT3=
EXTT4=
EXTT5=
EXTT6=
EXTT7=
EXTT8=
EXTT9=
EXTT10=
EXTT11=
PLAYORDER=
